<svg viewBox="0 0 24 24" fill="currentColor">
  <path d="M5.07175 21.2033C4.44611 21.2033 3.91054 20.9805 3.46502 20.535C3.01949 20.0895 2.79672 19.5539 2.79672 18.9283V5.07178C2.79672 4.44614 3.01949 3.91057 3.46502 3.46505C3.91054 3.01952 4.44611 2.79675 5.07175 2.79675H8.725C9.35061 2.79675 9.88619 3.01952 10.3317 3.46505C10.7772 3.91057 11 4.44614 11 5.07178V18.9283C11 19.5539 10.7772 20.0895 10.3317 20.535C9.88619 20.9805 9.35061 21.2033 8.725 21.2033H5.07175ZM15.275 21.2033C14.6494 21.2033 14.1138 20.9805 13.6683 20.535C13.2228 20.0895 13 19.5539 13 18.9283V14.275C13 13.6494 13.2228 13.1138 13.6683 12.6683C14.1138 12.2228 14.6494 12 15.275 12H18.9282C19.5539 12 20.0895 12.2228 20.535 12.6683C20.9805 13.1138 21.2033 13.6494 21.2033 14.275V18.9283C21.2033 19.5539 20.9805 20.0895 20.535 20.535C20.0895 20.9805 19.5539 21.2033 18.9282 21.2033H15.275ZM15.275 10C14.6494 10 14.1138 9.77727 13.6683 9.33175C13.2228 8.88622 13 8.35064 13 7.72503V5.07178C13 4.44614 13.2228 3.91057 13.6683 3.46505C14.1138 3.01952 14.6494 2.79675 15.275 2.79675H18.9282C19.5539 2.79675 20.0895 3.01952 20.535 3.46505C20.9805 3.91057 21.2033 4.44614 21.2033 5.07178V7.72503C21.2033 8.35064 20.9805 8.88622 20.535 9.33175C20.0895 9.77727 19.5539 10 18.9282 10H15.275Z"/>
</svg>